<svg xmlns="http://www.w3.org/2000/svg" viewBox="0 0 64 64" role="img" aria-label="Momentum Data MD favicon">
  <rect width="64" height="64" rx="14" fill="#eaf4ff"/>
  <rect x="4" y="4" width="56" height="56" rx="12" fill="#ffffff" stroke="#1f6feb" stroke-width="3"/>
  <path d="M10 45V18h8l9 14 9-14h8v27h-7V30L29 42h-4L17 30v15h-7z" fill="#1f6feb"/>
  <path d="M42 45V18h8c4 0 7.4 1.3 10 4 2.7 2.7 4 6 4 9.5S62.7 38.3 60 41c-2.6 2.7-6 4-10 4h-8zm7-7h1c2.2 0 3.9-.6 5.1-1.8 1.2-1.2 1.9-2.8 1.9-4.7s-.6-3.5-1.9-4.7C53.9 25.6 52.2 25 50 25h-1v13z" fill="#1f6feb"/>
</svg>
