<svg xmlns="http://www.w3.org/2000/svg" width="520" height="520" viewBox="0 0 520 520" role="img" aria-labelledby="title desc">
  <title id="title">Momentum Data MD logo</title>
  <desc id="desc">Trial Momentum Data logo using a blue MD mark with orange Momentum text and blue Data text.</desc>
  <g fill="none" fill-rule="evenodd">
    <path fill="#084bed" d="M78 64h54l125 134L380 64h62v248h-70V168L270 277c-8 9-18 14-30 14s-22-5-30-14L148 210v102H78V64Z"/>
    <path fill="#084bed" d="M210 313h163c60 0 104-38 104-99 0-58-43-97-103-97h-51l54-53c100 6 166 69 166 151 0 90-71 155-168 155H210v-57Z" transform="scale(.86) translate(60 24)"/>
    <text x="78" y="422" fill="#db5207" font-family="Arial, Helvetica, sans-serif" font-size="58" font-weight="700">Momentum</text>
    <text x="78" y="486" fill="#084bed" font-family="Arial, Helvetica, sans-serif" font-size="64" font-weight="700">Data</text>
  </g>
</svg>
