<svg xmlns="http://www.w3.org/2000/svg" width="760" height="190" viewBox="0 0 760 190" role="img" aria-labelledby="title desc">
  <title id="title">Momentum Data logo</title>
  <desc id="desc">Clean horizontal Momentum Data logo with a blue MD monogram and orange and blue wordmark.</desc>
  <g fill="none" fill-rule="evenodd">
    <g transform="translate(18 22)">
      <rect x="0" y="0" width="146" height="146" rx="30" fill="#f7fbff"/>
      <path d="M24 118V28h21l37 42 37-42h21v90h-25V67l-25 28c-5 6-12 9-19 9s-14-3-19-9L49 67v51H24Z" fill="#084BED"/>
      <path d="M90 118V95h28c21 0 35-13 35-33s-14-33-35-33h-20l20-23h3c35 0 59 23 59 56s-24 56-59 56H90Z" fill="#084BED" opacity="0.95"/>
    </g>
    <g transform="translate(196 52)">
      <text x="0" y="47" fill="#DB5207" font-family="Arial, Helvetica, sans-serif" font-size="48" font-weight="700" letter-spacing="-2">Momentum</text>
      <text x="0" y="104" fill="#084BED" font-family="Arial, Helvetica, sans-serif" font-size="56" font-weight="700" letter-spacing="-2">Data</text>
    </g>
  </g>
</svg>
