<svg xmlns="http://www.w3.org/2000/svg" width="520" height="480" viewBox="0 0 520 480" role="img" aria-labelledby="title desc">
  <title id="title">Momentum Data logo</title>
  <desc id="desc">Transparent Momentum Data logo in a blue, purple, and orange gradient.</desc>
  <defs>
    <linearGradient id="momentumGradient" x1="0%" y1="50%" x2="100%" y2="50%">
      <stop offset="0%" stop-color="#0B55F4"/>
      <stop offset="52%" stop-color="#6E55C7"/>
      <stop offset="100%" stop-color="#FF6A00"/>
    </linearGradient>
  </defs>
  <path d="M65.0,319.5 L11.5,319.0 L11.5,12.0 L60.0,11.5 L144.5,125.0 L147.0,126.5 L232.0,11.5 L325.0,11.5 L325.5,13.0 L321.5,19.0 L147.0,243.5 L91.5,172.0 L65.5,141.0 L65.0,319.5 Z M409.0,319.5 L226.5,319.0 L226.5,201.0 L298.0,109.5 L299.5,110.0 L299.0,255.5 L349.0,256.5 L375.0,255.5 L386.0,252.5 L404.0,242.5 L417.5,229.0 L428.5,210.0 L435.5,185.0 L435.5,154.0 L427.5,126.0 L416.5,108.0 L399.0,92.5 L380.0,84.5 L366.0,82.5 L319.5,82.0 L374.0,12.5 L403.0,17.5 L430.0,28.5 L455.0,45.5 L472.5,63.0 L483.5,78.0 L493.5,96.0 L503.5,125.0 L507.5,148.0 L507.5,190.0 L504.5,209.0 L496.5,235.0 L485.5,257.0 L473.5,274.0 L453.0,294.5 L433.0,308.5 L409.0,319.5 Z M79.0,409.5 L68.5,409.0 L68.0,385.5 L55.0,405.5 L51.0,405.5 L49.5,404.0 L39.0,385.5 L38.5,409.0 L28.0,409.5 L27.5,365.0 L37.5,365.0 L53.0,391.5 L68.5,366.0 L70.0,364.5 L78.0,364.5 L79.5,366.0 L79.0,409.5 Z M289.0,410.5 L280.0,409.5 L276.0,407.5 L273.5,404.0 L272.5,384.0 L267.5,383.0 L267.5,376.0 L272.5,375.0 L273.0,367.5 L283.0,367.5 L283.5,375.0 L291.5,376.0 L291.5,383.0 L283.5,384.0 L283.5,400.0 L285.0,401.5 L291.0,400.5 L294.5,407.0 L289.0,410.5 Z M107.0,410.5 L99.0,410.5 L93.0,408.5 L88.5,405.0 L84.5,399.0 L83.5,388.0 L86.5,382.0 L95.0,375.5 L110.0,375.5 L116.0,378.5 L121.5,387.0 L121.5,398.0 L119.5,402.0 L114.0,407.5 L107.0,410.5 Z M128.0,410.5 L125.5,409.0 L125.5,379.0 L127.0,374.5 L135.0,374.5 L137.0,377.5 L143.0,374.5 L150.0,374.5 L158.0,379.5 L166.0,374.5 L174.0,374.5 L179.0,376.5 L182.5,380.0 L184.5,386.0 L184.0,409.5 L173.5,409.0 L173.5,387.0 L170.0,383.5 L165.0,383.5 L160.5,389.0 L160.5,409.0 L150.0,409.5 L149.5,387.0 L146.0,383.5 L142.0,383.5 L137.5,387.0 L136.5,390.0 L136.5,409.0 L128.0,410.5 Z M213.0,410.5 L205.0,410.5 L198.0,408.5 L191.5,403.0 L188.5,397.0 L188.5,388.0 L190.5,383.0 L196.0,377.5 L203.0,374.5 L215.0,375.5 L224.5,385.0 L225.0,395.5 L199.5,396.0 L205.0,401.5 L212.0,401.5 L217.0,398.5 L222.5,404.0 L220.0,407.5 L213.0,410.5 Z M265.0,409.5 L254.5,409.0 L254.5,388.0 L250.0,383.5 L245.0,383.5 L240.5,388.0 L240.5,409.0 L230.0,409.5 L229.5,375.0 L238.0,374.5 L240.0,378.5 L243.0,375.5 L247.0,374.5 L254.0,374.5 L259.0,376.5 L263.5,381.0 L265.5,387.0 L265.0,409.5 Z M314.0,410.5 L305.0,409.5 L299.5,405.0 L297.5,401.0 L297.5,376.0 L304.0,374.5 L307.5,376.0 L307.5,395.0 L311.0,400.5 L315.0,401.5 L318.0,400.5 L321.5,396.0 L321.5,376.0 L332.0,374.5 L332.5,409.0 L323.0,409.5 L322.0,406.5 L314.0,410.5 Z M397.0,409.5 L386.5,409.0 L386.5,387.0 L383.0,383.5 L378.0,383.5 L373.5,389.0 L373.0,409.5 L362.5,409.0 L362.5,387.0 L359.0,383.5 L355.0,383.5 L350.5,387.0 L349.5,409.0 L340.0,409.5 L338.5,407.0 L339.5,376.0 L342.0,374.5 L348.0,374.5 L350.0,377.5 L356.0,374.5 L363.0,374.5 L371.0,379.5 L379.0,374.5 L390.0,375.5 L394.5,379.0 L397.5,385.0 L397.0,409.5 Z M214.5,388.0 L209.0,382.5 L205.0,382.5 L199.5,387.0 L200.0,388.5 L214.5,388.0 Z M105.5,401.0 L110.5,397.0 L111.5,391.0 L108.0,384.5 L100.0,383.5 L94.5,389.0 L94.5,395.0 L98.0,400.5 L105.5,401.0 Z M52.0,467.5 L27.5,467.0 L28.0,421.5 L55.0,421.5 L64.0,425.5 L70.5,432.0 L73.5,439.0 L73.5,450.0 L71.5,455.0 L62.0,464.5 L52.0,467.5 Z M134.0,467.5 L125.0,467.5 L121.0,465.5 L116.5,459.0 L116.5,442.0 L111.5,441.0 L111.5,433.0 L116.5,432.0 L117.0,424.5 L127.0,424.5 L126.5,432.0 L135.5,433.0 L135.5,441.0 L126.5,442.0 L127.5,457.0 L129.0,458.5 L135.0,457.5 L138.5,465.0 L134.0,467.5 Z M52.5,457.0 L57.0,455.5 L61.5,450.0 L61.5,438.0 L59.0,434.5 L54.0,431.5 L39.0,431.5 L38.5,457.0 L52.5,457.0 Z M108.0,467.5 L100.0,467.5 L98.0,464.5 L94.0,467.5 L84.0,467.5 L77.5,463.0 L75.5,459.0 L75.5,454.0 L81.0,447.5 L97.5,446.0 L97.5,443.0 L95.0,440.5 L86.0,440.5 L81.0,442.5 L77.5,437.0 L79.0,434.5 L86.0,431.5 L98.0,431.5 L106.5,437.0 L109.5,446.0 L109.5,466.0 L108.0,467.5 Z M171.0,467.5 L163.0,467.5 L161.0,464.5 L157.0,467.5 L147.0,467.5 L140.5,463.0 L138.5,455.0 L144.0,447.5 L160.0,446.5 L161.5,445.0 L158.0,440.5 L149.0,440.5 L144.0,442.5 L140.5,438.0 L142.0,434.5 L149.0,431.5 L161.0,431.5 L169.5,437.0 L172.5,445.0 L172.5,466.0 L171.0,467.5 Z M92.5,460.0 L98.5,456.0 L98.0,452.5 L86.5,454.0 L86.5,458.0 L90.0,460.5 L92.5,460.0 Z M156.5,460.0 L160.5,458.0 L161.0,452.5 L149.5,454.0 L148.5,457.0 L151.0,459.5 L156.5,460.0 Z" fill="url(#momentumGradient)" fill-rule="evenodd"/>
</svg>